<?xml version="1.0" encoding="UTF-8" standalone="no"?>
<svg
   xmlns:dc="http://purl.org/dc/elements/1.1/"
   xmlns:cc="http://creativecommons.org/ns#"
   xmlns:rdf="http://www.w3.org/1999/02/22-rdf-syntax-ns#"
   xmlns:svg="http://www.w3.org/2000/svg"
   xmlns="http://www.w3.org/2000/svg"
   xmlns:sodipodi="http://sodipodi.sourceforge.net/DTD/sodipodi-0.dtd"
   xmlns:inkscape="http://www.inkscape.org/namespaces/inkscape"
   role="img"
   viewBox="0 0 24 24"
   version="1.1"
   id="svg4533"
   sodipodi:docname="pixiv-1324440213350204010_0.svg"
   inkscape:version="0.92.2 (5c3e80d, 2017-08-06)">
  <metadata
     id="metadata4539">
    <rdf:RDF>
      <cc:Work
         rdf:about="">
        <dc:format>image/svg+xml</dc:format>
        <dc:type
           rdf:resource="http://purl.org/dc/dcmitype/StillImage" />
      </cc:Work>
    </rdf:RDF>
  </metadata>
  <defs
     id="defs4537" />
  <sodipodi:namedview
     pagecolor="#ffffff"
     bordercolor="#666666"
     borderopacity="1"
     objecttolerance="10"
     gridtolerance="10"
     guidetolerance="10"
     inkscape:pageopacity="0"
     inkscape:pageshadow="2"
     inkscape:window-width="1920"
     inkscape:window-height="1017"
     id="namedview4535"
     showgrid="false"
     inkscape:zoom="9.8333333"
     inkscape:cx="12"
     inkscape:cy="12"
     inkscape:window-x="-8"
     inkscape:window-y="-8"
     inkscape:window-maximized="1"
     inkscape:current-layer="svg4533" />
  <title
     id="title4529">pixiv icon</title>
  <path
     d="M4.935 0A4.924 4.924 0 0 0 0 4.935v14.13A4.924 4.924 0 0 0 4.935 24h14.13A4.924 4.924 0 0 0 24 19.065V4.935A4.924 4.924 0 0 0 19.065 0zm7.81 4.547c2.181 0 4.058.676 5.399 1.847a6.118 6.118 0 0 1 2.116 4.66c.005 1.854-.88 3.476-2.257 4.563-1.375 1.092-3.225 1.697-5.258 1.697-2.314 0-4.46-.842-4.46-.842v2.718c.397.116 1.048.365.635.779H5.79c-.41-.41.19-.65.644-.779V7.666c-1.053.81-1.593 1.51-1.868 2.031.32 1.02-.284.969-.284.969l-1.09-1.73s3.868-4.39 9.553-4.39zm-.19.971c-1.423-.003-3.184.473-4.27 1.244v8.646c.988.487 2.484.832 4.26.832h.01c1.596 0 2.98-.593 3.93-1.533.952-.948 1.486-2.183 1.492-3.683-.005-1.54-.504-2.864-1.42-3.86-.918-.992-2.274-1.645-4.002-1.646Z"
     id="path4531"
     style="fill:#ffffff;fill-opacity:1" />
</svg>
